<svg width="960" height="720" viewBox="0 0 960 720" fill="none" xmlns="http://www.w3.org/2000/svg">
  <rect width="960" height="720" rx="40" fill="#0B1020"/>
  <circle cx="769" cy="137" r="132" fill="#FF6A3D" fill-opacity="0.22"/>
  <circle cx="173" cy="617" r="146" fill="#6AD5FF" fill-opacity="0.16"/>
  <rect x="118" y="168" width="724" height="388" rx="28" fill="#131A31" stroke="rgba(255,255,255,0.12)"/>
  <rect x="158" y="212" width="644" height="104" rx="24" fill="#1B2340"/>
  <rect x="190" y="246" width="212" height="16" rx="8" fill="#F7F4EA"/>
  <rect x="190" y="278" width="136" height="12" rx="6" fill="#8E94AA"/>
  <rect x="566" y="232" width="192" height="56" rx="18" fill="#FF6A3D"/>
  <text x="662" y="267" text-anchor="middle" fill="#0B1020" font-size="28" font-family="Arial, sans-serif" font-weight="700">+$200</text>
  <rect x="158" y="350" width="300" height="150" rx="24" fill="#11182F" stroke="rgba(255,255,255,0.08)"/>
  <rect x="190" y="386" width="100" height="18" rx="9" fill="#8E94AA"/>
  <text x="190" y="448" fill="#F7F4EA" font-size="52" font-family="Arial, sans-serif" font-weight="700">102 Stax</text>
  <text x="190" y="482" fill="#8E94AA" font-size="24" font-family="Arial, sans-serif">with 2% bank boost</text>
  <rect x="498" y="350" width="304" height="150" rx="24" fill="#11182F" stroke="rgba(255,255,255,0.08)"/>
  <text x="530" y="414" fill="#8E94AA" font-size="22" font-family="Arial, sans-serif">Bigger bank adds</text>
  <text x="530" y="456" fill="#F7F4EA" font-size="40" font-family="Arial, sans-serif" font-weight="700">bigger free Stax</text>
  <text x="530" y="490" fill="#8E94AA" font-size="22" font-family="Arial, sans-serif">fast, clear, and easy to scan</text>
</svg>
