<svg width="1200" height="800" viewBox="0 0 1200 800" fill="none" xmlns="http://www.w3.org/2000/svg">
  <rect width="1200" height="800" rx="48" fill="#10182A"/>
  <circle cx="250" cy="170" r="160" fill="url(#paint0_radial)" fill-opacity="0.55"/>
  <circle cx="1000" cy="640" r="190" fill="url(#paint1_radial)" fill-opacity="0.35"/>
  <rect x="230" y="288" width="740" height="230" rx="115" fill="url(#paint2_linear)"/>
  <rect x="278" y="326" width="644" height="154" rx="77" fill="#1B2743"/>
  <g opacity="0.9">
    <rect x="332" y="332" width="58" height="142" rx="29" fill="#FF855E"/>
    <rect x="426" y="332" width="58" height="142" rx="29" fill="#F3C95D"/>
    <rect x="520" y="332" width="58" height="142" rx="29" fill="#6BD6FF"/>
    <rect x="614" y="332" width="58" height="142" rx="29" fill="#FF855E"/>
    <rect x="708" y="332" width="58" height="142" rx="29" fill="#F3C95D"/>
    <rect x="802" y="332" width="58" height="142" rx="29" fill="#6BD6FF"/>
  </g>
  <circle cx="276" cy="403" r="88" fill="#243556"/>
  <circle cx="276" cy="403" r="58" fill="#0E1527"/>
  <text x="112" y="700" fill="#F7F4EA" font-family="Arial, sans-serif" font-size="72" font-weight="700">Foam Roller</text>
  <defs>
    <radialGradient id="paint0_radial" cx="0" cy="0" r="1" gradientUnits="userSpaceOnUse" gradientTransform="translate(250 170) rotate(90) scale(160)">
      <stop stop-color="#FF6D4A"/>
      <stop offset="1" stop-color="#FF6D4A" stop-opacity="0"/>
    </radialGradient>
    <radialGradient id="paint1_radial" cx="0" cy="0" r="1" gradientUnits="userSpaceOnUse" gradientTransform="translate(1000 640) rotate(90) scale(190)">
      <stop stop-color="#6BD6FF"/>
      <stop offset="1" stop-color="#6BD6FF" stop-opacity="0"/>
    </radialGradient>
    <linearGradient id="paint2_linear" x1="230" y1="288" x2="970" y2="518" gradientUnits="userSpaceOnUse">
      <stop stop-color="#2C3F68"/>
      <stop offset="1" stop-color="#1A2440"/>
    </linearGradient>
  </defs>
</svg>
